<?xml version="1.0" standalone="no"?>
<!DOCTYPE svg PUBLIC "-//W3C//DTD SVG 1.1//EN" "http://www.w3.org/Graphics/SVG/1.1/DTD/svg11.dtd" >
<svg xmlns="http://www.w3.org/2000/svg">
<metadata>
Created by FontForge 20120731 at Mon Jul 24 09:45:50 2017
 By admin
</metadata>
<defs>
<font id="iconfont" horiz-adv-x="1024" >
  <font-face 
    font-family="iconfont"
    font-weight="500"
    font-stretch="normal"
    units-per-em="1024"
    panose-1="2 0 6 3 0 0 0 0 0 0"
    ascent="896"
    descent="-128"
    x-height="792"
    bbox="0 -128 1468 896.488"
    underline-thickness="0"
    underline-position="0"
    unicode-range="U+0078-E773"
  />
<missing-glyph 
 />
    <glyph glyph-name=".notdef" 
 />
    <glyph glyph-name=".notdef" 
 />
    <glyph glyph-name=".null" horiz-adv-x="0" 
 />
    <glyph glyph-name="nonmarkingreturn" horiz-adv-x="341" 
 />
    <glyph glyph-name="x" unicode="x" horiz-adv-x="1001" 
d="M281 543q-27 -1 -53 -1h-83q-18 0 -36.5 -6t-32.5 -18.5t-23 -32t-9 -45.5v-76h912v41q0 16 -0.5 30t-0.5 18q0 13 -5 29t-17 29.5t-31.5 22.5t-49.5 9h-133v-97h-438v97zM955 310v-52q0 -23 0.5 -52t0.5 -58t-10.5 -47.5t-26 -30t-33 -16t-31.5 -4.5q-14 -1 -29.5 -0.5
t-29.5 0.5h-32l-45 128h-439l-44 -128h-29h-34q-20 0 -45 1q-25 0 -41 9.5t-25.5 23t-13.5 29.5t-4 30v167h911zM163 247q-12 0 -21 -8.5t-9 -21.5t9 -21.5t21 -8.5q13 0 22 8.5t9 21.5t-9 21.5t-22 8.5zM316 123q-8 -26 -14 -48q-5 -19 -10.5 -37t-7.5 -25t-3 -15t1 -14.5
t9.5 -10.5t21.5 -4h37h67h81h80h64h36q23 0 34 12t2 38q-5 13 -9.5 30.5t-9.5 34.5q-5 19 -11 39h-368zM336 498v228q0 11 2.5 23t10 21.5t20.5 15.5t34 6h188q31 0 51.5 -14.5t20.5 -52.5v-227h-327z" />
    <glyph glyph-name="atoms" unicode="&#xe600;" 
d="M512 742q70 0 119 -46t49 -111q0 -39 -19 -73l136 -99q27 18 60 18q42 0 72.5 -28.5t30.5 -69t-30.5 -69t-73 -28.5t-73 28.5t-30.5 68.5q0 18 7 35l-136 99q-35 -30 -82 -38v-151q46 -10 76 -44.5t30 -80.5q0 -52 -40 -89.5t-96 -37.5t-96 37.5t-40 89.5q0 46 30 80.5
t76 44.5v151q-47 8 -82 38l-136 -99q7 -17 7 -35q0 -40 -30.5 -68.5t-73 -28.5t-73 28.5t-30.5 69t30.5 69t72.5 28.5q33 0 60 -18l136 99q-19 34 -19 73q0 65 49 111t119 46v0v0zM512 742z" />
    <glyph glyph-name="web" unicode="&#xe750;" 
d="M196 163h-68q-11 0 -19.5 8.5t-8.5 20.5v390q3 -1 6 -1h632q3 0 6 1v-52q0 -7 5 -12t12 -5t11.5 5t4.5 12v113q0 26 -18 44t-44 18h-587q-25 0 -43.5 -18t-18.5 -44v-451q0 -26 18.5 -44t43.5 -18h68q7 0 12 5t5 12t-5 11.5t-12 4.5zM128 671h587q12 0 20.5 -8t8.5 -20
v-29q-3 1 -6 1h-632q-3 0 -6 -1v29q0 12 8.5 20t19.5 8zM896 479h-587q-26 0 -44 -18t-18 -44v-451q0 -26 18 -44t44 -18h587q26 0 44 18t18 44v451q0 26 -18 44t-44 18zM309 446h587q12 0 20 -8.5t8 -20.5v-29q-3 1 -5 1h-633q-2 0 -5 -1v29q0 12 8 20.5t20 8.5zM896 -62
h-587q-12 0 -20 8t-8 20v390q3 -1 5 -1h633q2 0 5 1v-390q0 -12 -8 -20t-20 -8z" />
    <glyph glyph-name="01" unicode="&#xe668;" 
d="M286 650q-58 0 -103 -32t-69.5 -84.5t-37 -112t-12.5 -121.5q0 -68 12 -127.5t37 -111t69.5 -81.5t103.5 -30q46 0 84.5 21.5t63 56.5t41 81.5t23.5 94t7 97.5q0 66 -12 125.5t-36.5 111t-68.5 82t-102 30.5zM286 -13q-34 0 -59.5 27.5t-39.5 74t-20.5 100t-6.5 113.5
q0 61 6 113t19 98.5t38.5 73.5t60.5 27t60.5 -26.5t39 -73t19.5 -99t6 -114.5t-6 -114t-19 -99t-38.5 -74t-59.5 -27zM855 87v563q-102 -41 -193 -56v-25l52 -2q36 -2 44 -12t8 -52v-416q0 -22 -0.5 -34t-4.5 -23.5t-10 -16.5t-18.5 -10t-28 -6.5t-42.5 -3.5v-30h297v30
q-39 3 -58 6t-30.5 14.5t-13.5 26t-2 47.5z" />
    <glyph glyph-name="02" unicode="&#xe669;" 
d="M259 651q-58 0 -102.5 -32t-69.5 -85t-37.5 -112t-12.5 -122q0 -67 12 -127t37 -111.5t69.5 -81.5t103.5 -30q47 0 85 21.5t62.5 56.5t41.5 81.5t24 94.5t7 97q0 66 -12 125.5t-36.5 111.5t-69 82.5t-102.5 30.5zM259 -13q-34 0 -59 27.5t-39 74t-21 100t-7 113.5
q0 61 6 113t19.5 99t39 74t60.5 27t60.5 -26.5t38.5 -73.5t19 -99.5t6 -114.5q0 -61 -5.5 -113.5t-19 -99.5t-38.5 -74t-60 -27zM964 115q-24 -50 -41.5 -61.5t-63.5 -11.5h-202l153 162q79 84 111 140t32 124q0 82 -53.5 132.5t-128.5 50.5q-88 0 -146 -64l-62 -88l24 -21
q13 19 25.5 33.5t31 31.5t41.5 26t49 9q61 0 94.5 -38t33.5 -106q0 -62 -35.5 -123.5t-99.5 -138.5q-67 -77 -175 -184v-25h404q38 140 38 142z" />
    <glyph glyph-name="03" unicode="&#xe66a;" 
d="M259 653q-58 0 -103 -32t-70 -85t-37 -112.5t-12 -121.5q0 -68 12 -128t37 -111.5t69.5 -81.5t103.5 -30q47 0 85.5 21.5t63 56.5t41 81.5t24 94.5t7.5 98q0 66 -12 125.5t-37 111.5t-69 82.5t-103 30.5zM259 -12q-34 0 -59 27.5t-39 74t-21 100t-7 114.5t6 113t19.5 99
t39 74t60.5 27t60.5 -26.5t39 -73.5t19.5 -99.5t6 -114.5t-6 -114.5t-19 -99.5t-38.5 -74t-60.5 -27zM828 372v2q54 37 74 59q34 34 34 77q0 63 -45 103t-117 40q-41 0 -77.5 -17t-60.5 -43l-48 -69l23 -22q58 86 130 86q46 0 75 -26.5t29 -75.5q0 -56 -45.5 -92t-128.5 -62
l7 -31q39 11 70 11q53 0 95.5 -35.5t42.5 -104.5q0 -78 -36 -121.5t-96 -43.5q-72 0 -134 56q-12 10 -26 0q-24 -19 -25 -36q-4 -20 17 -39q14 -13 44.5 -25t64.5 -12q25 0 59.5 9.5t74 30.5t73 49.5t55.5 72.5t22 94q0 61 -40 106.5t-111 58.5z" />
    <glyph glyph-name="04" unicode="&#xe66b;" 
d="M258 653q-58 0 -103 -32t-70 -85t-37.5 -112.5t-12.5 -122.5q0 -68 12.5 -128t37.5 -111.5t69.5 -82t103.5 -30.5q47 0 85.5 22t63 57t41.5 81.5t24 94.5t7 98q0 66 -12 126t-37 111.5t-69 82.5t-103 31zM258 -14q-34 0 -59 27.5t-39 74.5t-21 100.5t-7 114.5t6 113.5
t19.5 99.5t39 74t60.5 27t60.5 -27t39 -73.5t19.5 -99.5t6 -115t-5.5 -114.5t-19 -99.5t-39 -74.5t-60.5 -27.5zM1014 156v51h-104v443h-44q-139 -185 -326 -464v-30h283v-78q0 -21 -0.5 -31.5t-4.5 -21t-9 -15t-17.5 -9t-27 -6t-40.5 -3.5v-29h278v29q-24 2 -37.5 3.5
t-25.5 6t-16.5 8.5t-8 15t-4 21.5t-0.5 31.5v78h104zM823 207h-214q89 150 212 321h2v-321z" />
    <glyph glyph-name="05" unicode="&#xe66c;" 
d="M258 653q-58 0 -102.5 -32t-70 -85t-37.5 -112.5t-12 -122.5q0 -68 12 -128t37 -111.5t69.5 -81.5t103.5 -30q47 0 85.5 21.5t63 56.5t41.5 81.5t24 94.5t7 98q0 66 -12 126t-37 111.5t-69 82.5t-103 31zM258 -13q-34 0 -59 27.5t-39 74t-21 100.5t-7 114q0 61 6 113.5
t19.5 99.5t39 74t60.5 27t60.5 -27t39 -73.5t19.5 -99.5t6 -115t-6 -114.5t-19 -99.5t-38.5 -74t-60.5 -27zM777 392q-34 0 -122 -32l28 201h253l29 70l-7 9h-309l-43 -331q56 21 112 21q86 0 131.5 -44.5t45.5 -119.5q0 -66 -36 -113.5t-102 -47.5q-72 0 -133 56
q-15 11 -30 0q-21 -19 -23 -36q-2 -15 18 -37q14 -14 46 -26t66 -12q44 1 94.5 21.5t94.5 55.5q96 79 96 182q0 72 -55.5 127.5t-153.5 55.5z" />
    <glyph glyph-name="06" unicode="&#xe66e;" 
d="M258 653q-47 0 -85.5 -21.5t-63.5 -56.5t-42 -82t-24.5 -95t-7.5 -98q0 -68 12 -128t37.5 -111.5t70 -82t103.5 -30.5q48 0 86 22t63 57t41.5 81.5t24 94.5t7.5 98q0 67 -12.5 127t-37 112t-69 82.5t-103.5 30.5zM258 -15q-34 0 -59.5 27.5t-39.5 74.5t-20.5 101
t-6.5 114q0 62 6 114.5t19.5 99.5t39 74t60.5 27t60.5 -26.5t39 -73.5t20 -100t6.5 -116q0 -61 -6 -114t-19.5 -100t-38.5 -74.5t-61 -27.5zM810 390q-28 0 -69 -19l-73 -36q38 174 201 252q59 27 118 38l-7 35q-80 -14 -140 -35q-37 -14 -73.5 -35.5t-75 -57t-67 -78.5
t-47 -104t-18.5 -129q0 -124 63 -198.5t161 -74.5q96 0 159.5 70.5t63.5 169.5q0 86 -55 144t-141 58zM801 -15q-65 0 -105 68.5t-40 169.5q0 50 7 75q56 31 104 31q70 0 107.5 -53t37.5 -127q0 -29 -5.5 -56t-17.5 -52t-35 -40.5t-53 -15.5z" />
    <glyph glyph-name="phone" unicode="&#xe711;" 
d="M717 832h-410q-53 0 -90.5 -37.5t-37.5 -90.5v-640q0 -53 37.5 -90.5t90.5 -37.5h416q53 0 90.5 37.5t37.5 90.5v640q0 52 -40.5 90t-93.5 38zM442 768h147q6 0 12.5 -5.5t6.5 -13.5q0 -9 -7.5 -14t-18.5 -5h-140q-6 0 -13 5t-7 14q0 19 20 19zM512 -32q-23 0 -37 15.5
t-14 35.5q0 19 16 35t35 16q23 0 37 -15t14 -36q0 -19 -16 -35t-35 -16zM762 102h-493v564h493v-564z" />
    <glyph glyph-name="bi" unicode="&#xe602;" 
d="M969 637q-291 -351 -338 -407q-57 -69 -71 -97q-3 -4 -18 -34t-23.5 -45.5t-22 -37t-24.5 -30.5t-19 -5q-6 2 -12 5q-5 -9 -12.5 -22t-29.5 -37t-45 -34q-31 -14 -64 -17t-69 4.5t-55 13.5t-51 18q-11 4 -27.5 8t-26.5 6t-11 2q142 36 200 63q27 12 54 30.5t42 33.5
t12 20q-1 3 -1.5 5.5l-0.5 2.5q-4 15 23.5 42.5t84.5 75.5l18 15q74 63 101 91q38 40 119.5 135.5t143.5 171l62 75.5l6 3t16.5 1t24 -10.5t15.5 -21t2 -18.5z" />
    <glyph glyph-name="folder" unicode="&#xe755;" 
d="M976 18h-928q-20 0 -34 13.5t-14 32.5v62v429h1024v-491q0 -19 -14 -32.5t-34 -13.5zM0 647v93q0 19 14 32.5t34 13.5h240l96 -92h592q20 0 34 -13.5t14 -33.5v-46h-1024v46v0z" />
    <glyph glyph-name="apple" unicode="&#xe629;" horiz-adv-x="1056" 
d="M517 666q55 4 111 38q29 21 39 33q2 4 26 44q6 10 19 49q6 26 6 51v15q-55 -5 -111 -38q-19 -14 -38 -33q-21 -31 -27 -44q-9 -21 -18 -52q-7 -26 -7 -49v-14zM115 319q0 -29 3 -45q11 -125 67 -230q55 -99 93 -134q44 -38 86 -38q29 0 89.5 26.5t86.5 26.5
q25 0 77 -26.5t79 -26.5q42 0 79 29q40 32 70 76q10 14 25 41q8 14 26 53.5t27 58.5v7q-59 22 -97 76.5t-38 121.5q0 59 30 111q30 50 79 76q-35 47 -86.5 75t-96.5 28q-38 0 -108.5 -24t-80.5 -24q-11 0 -37 11t-62 22t-72 11q-43 0 -91 -19.5t-84 -60.5q-45 -49 -63 -166
q0 -9 -0.5 -27.5t-0.5 -28.5v0v0z" />
    <glyph glyph-name="file" unicode="&#xe613;" 
d="M678 841h-64h-392q-35 0 -60 -25.5t-25 -60.5v-751q0 -35 25 -60t60 -25h584q36 0 61 25t25 60v568v42zM845 9q0 -17 -12 -30t-31 -13h-580q-17 0 -30 12t-13 31v750q0 17 12 30t31 13h375v-209q0 -17 12.5 -30t30.5 -13h209v-541h-4zM636 593v209h21l188 -209h-209z" />
    <glyph glyph-name="time" unicode="&#xe60c;" 
d="M512 832q-185 0 -316.5 -131.5t-131.5 -316.5t131.5 -316.5t316.5 -131.5t316.5 131.5t131.5 316.5t-131.5 316.5t-316.5 131.5zM512 0q-104 0 -192.5 51.5t-140 140t-51.5 192.5t51.5 192.5t140 140t192.5 51.5t192.5 -51.5t140 -140t51.5 -192.5t-51.5 -192.5
t-140 -140t-192.5 -51.5zM672 384h-160v224q0 13 -9.5 22.5t-22.5 9.5t-22.5 -9.5t-9.5 -22.5v-256q0 -13 9.5 -22.5t22.5 -9.5h192q13 0 22.5 9.5t9.5 22.5t-9.5 22.5t-22.5 9.5z" />
    <glyph glyph-name="data" unicode="&#xe636;" 
d="M293 384h6q46 0 81 29l220 -131q-3 -13 -3 -26q0 -53 37.5 -90.5t90.5 -37.5t90.5 37.5t37.5 90.5q0 58 -43 96l81 203h5q53 0 90.5 37.5t37.5 90.5t-37.5 90.5t-90.5 37.5t-90.5 -37.5t-37.5 -90.5q0 -58 44 -97l-81 -202h-6q-46 0 -81 -29l-220 131q3 13 3 26
q0 53 -37.5 90.5t-90.5 37.5t-90.5 -37.5t-37.5 -90.5q0 -58 43 -96l-81 -203h-5q-53 0 -90.5 -37.5t-37.5 -90.5t37.5 -90.5t90.5 -37.5t90.5 37.5t37.5 90.5q0 58 -44 97z" />
    <glyph glyph-name="more" unicode="&#xe659;" 
d="M512 -128q-138 0 -256 69t-187 187t-69 256t69 256t187 187t256 69t256 -69t187 -187t69 -256t-69 -256t-187 -187t-256 -69zM512 832q-187 0 -317.5 -130.5t-130.5 -317.5t130.5 -317.5t317.5 -130.5t317.5 130.5t130.5 317.5t-130.5 317.5t-317.5 130.5zM736 352h-448
q-14 0 -23 9t-9 23t9 23t23 9h448q14 0 23 -9t9 -23t-9 -23t-23 -9zM512 128q-14 0 -23 9t-9 23v448q0 14 9 23t23 9t23 -9t9 -23v-448q0 -14 -9 -23t-23 -9z" />
    <glyph glyph-name="code" unicode="&#xe607;" horiz-adv-x="1025" 
d="M293 141q-19 0 -34 13l-259 230l273 243q16 14 37.5 13t35.5 -17t12.5 -37t-17.5 -35l-187 -167l173 -154q16 -14 17 -35t-13 -37q-15 -17 -38 -17zM751 141l274 243l-260 230q-15 14 -36.5 13t-35.5 -17t-12.5 -37t16.5 -35l173 -154l-187 -167q-16 -14 -17 -35t13 -37
q15 -17 38 -17q20 0 34 13zM512 68l102 615q3 21 -9 38t-33 20.5t-38.5 -8.5t-20.5 -33l-102 -615q-4 -21 8.5 -38t33.5 -21h8q19 0 33 12t18 30z" />
    <glyph glyph-name="cool" unicode="&#xe65e;" 
d="M698 62h-408q-35 0 -59.5 25t-24.5 60v236q0 35 25 59.5t59 24.5h84q5 1 11.5 3t22.5 11t30 21t31 34.5t29 50.5l2 4q14 34 21 48.5t18.5 31.5t24.5 22.5t32 5.5q27 0 46 -20q24 -25 21 -66q-4 -76 -46 -146h151q35 0 57 -25q22 -26 15 -62l-47 -236q-5 -34 -33.5 -58
t-61.5 -24zM290 434q-21 0 -36 -15t-15 -36v-236q0 -22 15 -37t36 -15h407q22 0 41 16.5t23 38.5l47 236q4 20 -8 34t-32 14h-182q-10 0 -14.5 9t1.5 18q52 73 57 154q1 28 -13 42q-9 10 -21 10q-21 0 -32 -15.5t-35 -72.5l-1 -4q-15 -35 -36 -62t-39.5 -41t-37 -23
t-27.5 -11.5t-11 -2.5h-3h-84v-1zM351 62q-7 0 -12 5t-5 12v372q0 7 5 12t11.5 5t11.5 -5t5 -12v-372q0 -7 -4.5 -12t-11.5 -5z" />
    <glyph glyph-name="qq" unicode="&#xe608;" 
d="M459 807q-90 -20 -149 -89t-66 -164q-2 -28 -5 -28q-4 0 -10.5 -12.5t-6.5 -19.5q0 -10 -5 -18q-6 -8 -4 -33l1 -25l-22 -28q-39 -52 -54 -105t-3 -99q5 -20 10 -25t16 -1q8 4 24 21t21 27q6 8 9 3q0 -6 12.5 -30t23.5 -40q5 -6 8.5 -11t5 -8.5l1.5 -3.5q-1 -1 -15 -8
q-40 -21 -40 -71q-1 -17 6 -27q8 -11 11 -16q16 -28 79 -37q26 -4 50.5 -2t74.5 12q51 10 82.5 10t84.5 -10q146 -29 193 20q35 38 23 67q-5 12 -3 13q1 2 -4 13q-11 20 -41 32l-12 6l18 26q18 26 28 51l9 25l13 -20q10 -15 22 -27.5t20 -15.5q10 -3 18 17t11 54q1 32 -6 60
q-6 25 -23 60.5t-33 56.5q-11 15 -12.5 19.5t0.5 18.5q7 38 -14 72q-10 15 -14 46q-9 83 -63.5 148t-136.5 91q-23 8 -65 9.5t-68 -4.5zM606 684q25 -16 28 -59q3 -38 -12.5 -62.5t-38 -23t-37.5 31.5q-9 16 -8.5 44t8.5 45q10 20 27.5 27t32.5 -3zM463 681q25 -17 28 -61
t-18 -67q-21 -22 -44 -12q-37 16 -37 73q0 44 24 64q8 7 23 8t24 -5zM611 516q33 -9 62.5 -24t29.5 -24q0 -5 -17 -16t-31 -15q-8 -2 -8 -1q0 2 11 17q12 16 3 12q-5 -2 -16 -11q-57 -42 -121.5 -43t-119.5 40q-19 14 -20 12q-2 -1 6 -14q7 -12 5 -14t-18 5t-25 14
q-10 7 -10 14q0 11 37.5 28t77.5 25q28 5 76.5 3.5t77.5 -8.5v0zM390 396q50 -17 114 -17q32 0 32 -4q-2 -3 -18.5 -3t-42 2.5t-43.5 6.5q-55 10 -64 19q-6 5 8 1q6 -2 14 -5v0zM586 379q-10 -2 -29 -2h-19l20 2q20 2 29 2h5q-1 -1 -6 -2zM310 328q4 -2 -3 -46
q-6 -42 -4.5 -61.5t12.5 -31.5q20 -23 64 -23q35 -1 43 10.5t8 61.5v43l29 -3q77 -8 148.5 7t126.5 51q18 13 21 10q9 -10 12 -57.5t-4 -75.5q-20 -79 -84.5 -130t-149.5 -55q-117 -5 -198 74q-61 62 -70 146q-1 20 2 47.5t9 41.5l5 12l14 -9q5 -3 11.5 -7t7.5 -5v0z
M280 100q6 -6 17 -13q13 -8 26 -21q10 -9 38 -33q25 -20 25 -27.5t-8.5 -10t-38.5 -2.5q-42 0 -72.5 11t-38.5 29q-4 9 5 25q6 12 6.5 14.5t-4.5 4.5q-12 4 11 20q24 16 34 3v0zM774 101q21 -10 20 -21q0 -5 -8 -5q-5 0 1 -7q6 -6 8 -23q1 -11 -0.5 -15.5t-10.5 -11.5
q-26 -23 -94 -22q-42 0 -47 5q-10 10 26 30q40 23 46 35q4 7 14 10q11 2 20 16q8 12 12 13t13 -4zM562 636q-6 -7 -9 -17.5t-1 -17.5q3 -14 10 0q2 3 3 9q4 16 14 15q5 -1 7 -9l3 -17q3 -15 8 -5q2 5 2 17q0 18 -8 24q-16 14 -29 1v0zM446 639q-10 -11 -9.5 -28.5
t11.5 -25.5q8 -5 13 -4.5t12 8.5q9 8 9 24q0 19 -12.5 28t-23.5 -2v0zM470 618q0 -8 -5.5 -9.5t-8.5 4.5q-2 5 2 10.5t8 3.5q4 -1 4 -9v0z" />
    <glyph glyph-name="star" unicode="&#xe72a;" 
d="M719 18q-14 0 -26 7l-179 88l-181 -88q-13 -7 -29.5 -6t-29.5 10q-28 20 -22 55l37 191l-142 131q-26 25 -15 58t45 38l198 36l88 178q16 31 51 31t50 -31l88 -178l198 -35q34 -5 45 -38t-14 -57l-143 -133l36 -191q6 -34 -22 -55q-15 -11 -33 -11v0v0zM719 18z" />
    <glyph glyph-name="send" unicode="&#xe632;" 
d="M828 822q-24 12 -35 0l-704 -349q-10 0 -15.5 -8t-5.5 -20q0 -10 4.5 -19t9.5 -9l169 -104q24 -12 42 6l373 336l14 -7l-337 -356q-7 -7 -7 -21v-154q0 -25 21 -35q18 -9 35 7l84 84l169 -112q7 -7 21 -7h14q21 11 21 28l141 699q0 13 -0.5 19t-3.5 12.5t-10 9.5z" />
    <glyph glyph-name="game" unicode="&#xe60d;" 
d="M896 13q-101 0 -256 89q-57 35 -128 35q-75 0 -132 -35q-156 -89 -256 -89q-62 0 -94 64q-21 42 -21 132q0 66 14.5 140.5t42.5 146t65.5 130t88 94t104.5 35.5q9 0 20.5 -2.5t18.5 -5t23.5 -9t23.5 -8.5q5 -3 24 -10.5t28 -10.5t23.5 -6t26.5 -3q9 0 18.5 1.5t21.5 5.5
l19.5 6.5t23 8.5t19.5 8q60 25 86 25q55 0 106 -35.5t88 -94t65 -130t42 -146t14 -140.5q0 -75 -21 -132q-35 -64 -98 -64zM521 201q80 0 153 -43q76 -44 128.5 -62.5t97.5 -18.5q24 0 34 30q17 34 17 102q0 72 -20.5 156.5t-53.5 157t-80.5 120.5t-96.5 48q-6 0 -14.5 -3
t-21.5 -9t-20 -9q-2 -1 -14 -6.5t-15.5 -7t-15 -6t-16.5 -6.5t-15.5 -5t-17.5 -4t-16 -2.5t-18 -1.5q-41 0 -128 39q-10 3 -24 9t-23 9t-12 3q-51 0 -99 -48t-80.5 -120.5t-52.5 -157t-20 -156.5q0 -74 17 -102q15 -30 34 -30q76 0 226 81q73 43 162 43h5zM452 363h-179
q-14 0 -24 9.5t-10 24.5q0 30 34 30h179q14 0 24 -9.5t10 -24.5t-10 -22.5t-24 -7.5zM363 273q-14 0 -24 9.5t-10 24.5v175q0 14 9 24t25 10t25 -9t9 -25v-179q-3 -13 -12.5 -21.5t-21.5 -8.5zM687 393zM623 392.5q0 -26.5 18.5 -45t45 -18.5t45.5 18.5t19 45t-19 45.5
t-45.5 19t-45 -19t-18.5 -45.5z" />
    <glyph glyph-name="weixin" unicode="&#xe61a;" 
d="M670 488q9 0 28 -1q-19 92 -104.5 152.5t-195.5 60.5q-124 0 -211 -75.5t-87 -183.5q0 -119 119 -204l-30 -92l104 54q79 -15 105 -15h28q-10 31 -10 64q0 100 74 170t180 70v0zM509 571q17 0 27.5 -10.5t10.5 -27.5t-10.5 -27.5t-27.5 -10.5t-30.5 10.5t-13.5 27
t13.5 27.5t30.5 11v0zM301 495q-18 0 -31.5 10.5t-13.5 27t13.5 27.5t31.5 11q17 0 27 -10.5t10 -27.5t-10 -27.5t-27 -10.5v0zM941 252q0 90 -75.5 155t-177.5 65q-106 0 -179.5 -64.5t-73.5 -155.5q0 -92 73.5 -156t179.5 -64q26 0 90 15l81 -46l-22 76q104 81 104 175v0z
M606 290q-11 0 -20 9.5t-9 20.5q0 12 9 21.5t20 9.5q16 0 27 -9.5t11 -21.5t-11 -21t-27 -9v0zM770 290q-11 0 -20 9.5t-9 20.5q0 12 9 21.5t20 9.5q16 0 26.5 -9.5t10.5 -21.5t-10.5 -21t-26.5 -9v0z" />
    <glyph glyph-name="triangle" unicode="&#xe612;" 
d="M774 512l-262 -256l-262 256h524z" />
    <glyph glyph-name="gift" unicode="&#xe610;" 
d="M925 73v307q35 20 35 61v78q0 29 -20.5 49.5t-50.5 20.5h-92l6 4q68 42 80 82q13 46 -39 77q-56 32 -142 12q-55 -13 -121 -49q-32 -17 -63 -38q-7 -4 -13 -9q-11 10 -21 19q-96 79 -178 89q-74 9 -129 -37l-3 -3l-4 -4q-53 -68 27 -143h-60q-29 0 -49.5 -20.5
t-20.5 -49.5v-78q0 -41 35 -61v-307q0 -38 27.5 -65.5t66.5 -27.5h635q39 0 66.5 27.5t27.5 65.5zM604 674q60 32 109 44q67 16 107 -7q21 -12 17 -23q-6 -22 -59 -55q-21 -13 -47 -26q-13 -6 -21 -9q-6 -3 -10 -9h-122q-1 5 -4 9q-2 3 -7 8q-8 10 -18 20l-9 9q2 2 4 3
q30 20 60 36zM273 592q-5 2 -12 7q-15 10 -28 21q-53 48 -26 83h1v1q40 31 92 25q69 -8 154 -79q31 -25 61 -56q2 -2 4 -5h-243q-1 2 -3 3zM114 519q0 10 6.5 17t16.5 7h752q10 0 17 -7t7 -17v-78q0 -10 -6 -16h-6h-776h-5q-6 7 -6 16v78zM196 27q-20 0 -33.5 13.5
t-13.5 32.5v297h729v-297q0 -19 -14 -32.5t-33 -13.5h-635z" />
    <glyph glyph-name="right" unicode="&#xe6b4;" 
d="M792 384l-48 49h-1l-463 463l-48 -49l463 -463l-463 -463l48 -49l463 463h1l48 49v0v0zM792 384z" />
    <glyph glyph-name="users" unicode="&#xe61e;" 
d="M536 345q40 29 63 73.5t23 95.5q0 87 -61.5 148t-148.5 61t-148.5 -61t-61.5 -148q0 -51 23 -95.5t63 -73.5q-101 -38 -163.5 -127t-62.5 -200h70q0 116 82 198t198 82t198 -82t82 -198h69q0 111 -62.5 200t-162.5 127zM424 367q-7 1 -12 1t-12 -1q-57 5 -96 47t-39 100
q0 61 43 104t104 43t104 -43t43 -104q0 -58 -39 -100t-96 -47zM736 371q40 29 63 73.5t23 95.5q0 87 -61.5 148.5t-148.5 61.5v-63q61 0 104 -43t43 -104q0 -57 -39 -99.5t-96 -46.5h-12v-70q116 0 198 -82t82 -197h70q0 110 -62.5 199t-163.5 127z" />
    <glyph glyph-name="user" unicode="&#xe611;" 
d="M603 286q32 22 59 55.5t37 55.5l11 23q27 25 36 48.5t2.5 40t-13.5 25.5t-16 15q3 10 0 67q1 55 -13.5 96.5t-35.5 61.5t-42 33t-35 15l-15 3q-39 8 -66 8q-25 1 -68 -7q-6 -2 -15.5 -4.5t-33.5 -16.5t-42.5 -34.5t-34 -61t-16.5 -92.5q-3 -57 0 -67q-9 -6 -16 -15
t-13.5 -25.5t3 -40t35.5 -48.5q5 -9 12.5 -24.5t34 -51t55.5 -58.5q15 -42 -1 -72q-8 -1 -20.5 -4t-52 -17t-78.5 -33t-93.5 -55t-103.5 -80l-1 -89h457v0h439v88q-49 44 -103.5 80t-97 55t-78.5 32.5t-56 17.5l-20 4q-7 14 -7.5 32t3.5 29z" />
    <glyph glyph-name="360" unicode="&#xe66d;" 
d="M694 441h-5h-113v103v5q0 24 -17 41t-41 17t-41.5 -17t-17.5 -41v-108h-99q-24 0 -41.5 -17.5t-17.5 -41.5t17.5 -41t41.5 -17h4h95v-109q0 -24 17.5 -41t41.5 -17t41 17t17 41v5v104h114h4q24 0 41 17t17 41.5t-17 41.5t-41 17zM512 829q-90 0 -172.5 -35.5t-142.5 -95
t-95 -142t-35 -172.5q0 -144 84 -260q21 -34 60 -68q61 -55 138.5 -86t162.5 -31q157 0 279 99l3 2l2 1q35 30 64 66q97 121 97 277q0 90 -35 172.5t-95 142t-142.5 95t-172.5 35.5zM837 127q-84 -46 -193 -68q-62 -12 -134 0.5t-113 31.5q-24 12 -44.5 26t-30.5 23
t-27 26.5t-25 24.5l-20 20q-37 33 -70.5 33t-46.5 -28q-15 33 -25.5 82t-10.5 86v0q0 140 86 252q86 50 202 73q62 12 133.5 -0.5t112.5 -31.5q24 -12 44.5 -26t31 -23.5t27.5 -26.5t24 -25l21 -19q37 -33 68.5 -32.5t43.5 28.5q15 -34 25.5 -83t10.5 -86v0q0 -144 -90 -257
z" />
    <glyph glyph-name="pic" unicode="&#xe773;" 
d="M805 544l-83 223l-657 -259l190 -506v0h703v542h-153zM254 170l-113 303l113 45v-348zM688 689l55 -145h-423zM900 62h-587v422h587v-422zM784 321l-47 -16l-41 78l-131 -194l-71 46l-110 -123h462zM442 302q23 0 39.5 16.5t16.5 40t-16.5 40.5t-39.5 17t-39 -17
t-16 -40.5t16 -40t39 -16.5z" />
    <glyph glyph-name="model" unicode="&#xe65b;" 
d="M724 654h51v-445h-51v445zM522 506h50v-296h-50v296zM897 768h-770q-26 0 -44.5 -18.5t-18.5 -44.5v-642q0 -26 18.5 -44.5t44.5 -18.5h770q26 0 44.5 18.5t18.5 44.5v642q0 26 -18.5 44.5t-44.5 18.5zM674 673q0 13 9 22t22 9h89q13 0 22 -9t9 -22v-482q0 -13 -9 -22
t-22 -9h-89q-13 0 -22 9t-9 22v482zM471 525q0 12 9.5 21.5t22.5 9.5h88q14 0 23 -9t9 -22v-334q0 -13 -9 -22t-23 -9h-88q-13 0 -22.5 9t-9.5 22v334zM269 376q0 13 9 22t22 9h89q13 0 22.5 -9t9.5 -22v-185q0 -13 -9.5 -22t-22.5 -9h-89q-13 0 -22 9t-9 22v185zM896 94
q0 -4 -3.5 -7.5t-7.5 -3.5h-706v-8q0 -11 -11 -11h-10q-11 0 -11 11v8h-8q-5 0 -8 3.5t-3 7.5v10q0 5 3 8t8 3h8v578q0 11 11 11h10q11 0 11 -11v-578h706q4 0 7.5 -3t3.5 -8v-10zM319 358h51v-149h-51v149z" />
    <glyph glyph-name="sougou" unicode="&#xe647;" 
d="M512 -18q-110 0 -203 54t-147 147t-54 203t54 203t147 147t203 54t203 -54t147 -147t54 -203q0 -148 -95 -260l32 -23q103 123 103 283q0 90 -35.5 172t-94.5 141.5t-141.5 94.5t-172.5 35t-172.5 -35t-141.5 -94.5t-94.5 -141.5t-35.5 -172t35.5 -172.5t94.5 -141.5
t141.5 -94.5t172.5 -35.5v0q37 0 86.5 10t82.5 24l-20 34q-29 -11 -73 -19.5t-76 -8.5v0zM699 -27l20 -34q42 17 92 54t80 72l-33 23q-27 -32 -73.5 -65.5t-85.5 -49.5zM504 218q-7 0 -18.5 0.5t-44 5t-62 12t-65 24t-60.5 39.5l-7 -114q7 -3 19 -7t48 -14t71.5 -18
t83.5 -14.5t89.5 -6.5t83.5 9t72 28t49.5 54.5t19.5 84.5q1 3 0.5 8.5t-9 21t-25 30t-55 32.5t-92.5 33q-76 18 -161 67l-7 14q-4 20 27 27q25 6 70 2q71 -5 132 -18.5t86 -24.5l26 -11v101q-8 3 -21.5 7.5t-54 15.5t-79.5 18.5t-92 12t-97.5 0t-88.5 -22.5t-73 -50
q-2 -3 -5 -8t-9 -19.5t-7.5 -28t3 -30.5t18.5 -30q40 -37 112.5 -74t164.5 -60v0q55 -26 63 -51q10 -34 -103 -44q-1 -1 -2 -1z" />
    <glyph glyph-name="team" unicode="&#xe699;" 
d="M303 245q-60 -9 -110.5 -27.5t-85 -48.5t-34.5 -64q0 -159 339 -159q201 0 289 54q64 39 64 105q0 34 -34 64t-84.5 48.5t-111.5 27.5l-8 1v20l4 3q31 23 51.5 57t30 74t13 74.5t3.5 77.5q0 98 -54.5 153.5t-151.5 55.5h-7q-97 0 -151.5 -55.5t-54.5 -153.5
q0 -43 3.5 -77.5t12.5 -74.5t30 -74t51 -57l4 -3v-20zM347 298q-28 18 -47 46.5t-28 64.5t-12 68.5t-3 74.5q0 79 40.5 120.5t118.5 41.5h7q78 0 118.5 -41.5t40.5 -120.5q0 -42 -3.5 -74.5t-12 -68.5t-27.5 -64.5t-48 -46.5q-11 -7 -11 -20v-53v0q0 -9 6.5 -15.5t14.5 -7.5
q90 -10 153.5 -40t63.5 -57q0 -54 -79 -82.5t-227 -28.5q-292 0 -292 111q0 27 64 57t153 40q9 1 15 7.5t6 15.5v53v0q0 13 -11 20zM412 -64q-173 0 -259 40q-90 42 -90 129q0 57 77 99q65 36 161 51v6q-32 24 -53.5 59t-31 76t-13 76.5t-3.5 79.5q0 102 57.5 160.5
t158.5 58.5h7q101 0 158.5 -58.5t57.5 -160.5q0 -44 -3.5 -79.5t-13.5 -76.5t-31 -76t-54 -59v-6q96 -15 161 -51q78 -42 78 -99q0 -71 -70 -113q-91 -56 -294 -56zM416 751q-92 0 -144 -53t-52 -146q0 -42 3 -75.5t12 -72.5t29 -72t50 -55l7 -6v-33l-16 -3
q-93 -14 -155 -48q-67 -37 -67 -82q0 -149 329 -149q198 0 284 53q59 36 59 96q0 45 -66 82q-62 34 -155 48l-17 3v33l8 6q30 22 49.5 55t28.5 72t12.5 72.5t3.5 75.5q0 93 -52 146t-144 53h-7zM412 -17q-149 0 -223 29q-79 30 -79 93q0 34 67 65.5t159 41.5q12 1 12 13v53
v0q0 8 -6 12q-30 19 -50 48t-29 66.5t-12.5 71t-3.5 76.5q0 83 43.5 127.5t125.5 44.5h7q82 0 125.5 -44.5t43.5 -127.5q0 -43 -3.5 -76.5t-13 -71t-29 -66.5t-49.5 -48q-7 -4 -7 -12v0v-53q0 -12 12 -13q92 -10 159 -41.5t67 -65.5q0 -31 -23 -55q-21 -22 -62 -37
q-81 -30 -231 -30zM416 704q-149 0 -149 -152q0 -41 3 -72.5t11.5 -66.5t26.5 -62t45 -44q15 -10 15 -29v-53q0 -13 -8.5 -22.5t-21.5 -10.5q-88 -10 -151 -40q-29 -13 -43 -26t-14 -21q0 -49 66 -75q71 -26 216 -26q146 0 224 28q72 26 72 73q0 8 -13.5 21t-42.5 26
q-64 30 -152 40q-12 1 -21 11t-9 22v0v53q0 19 16 29q27 17 45 44t26.5 62t11.5 66.5t3 72.5q0 152 -149 152h-7zM904 173q0 -10 7 -17t16.5 -7t16.5 7t7 17v0q0 48 -69.5 91.5t-156.5 59.5l-8 1v36l4 3q34 25 57 62.5t33 77t13.5 68t3.5 55.5q0 90 -53.5 142.5t-145.5 52.5
q-10 0 -17 -7t-7 -17t7 -17t17 -7q73 0 112 -38t39 -109q0 -25 -3 -51.5t-12 -62t-30.5 -68t-53.5 -52.5q-11 -7 -11 -20v0v-69q0 -9 6 -15.5t15 -7.5q51 -5 101.5 -24.5t81 -42.5t30.5 -41zM927 139v0q-14 0 -23.5 10t-9.5 24q0 9 -16 24t-46 30q-67 36 -142 44
q-13 1 -21.5 11t-8.5 22v69q0 19 16 29q30 19 50.5 50t29 65.5t11.5 59.5t3 50q0 67 -36 102t-105 35q-14 0 -24 10t-10 24t10 24t24 10q96 0 152.5 -55.5t56.5 -149.5q0 -28 -3.5 -57t-14 -70t-34.5 -79.5t-58 -64.5v-22q88 -17 156 -59q77 -48 77 -102v0q0 -14 -10 -24
t-24 -10zM629 812q-6 0 -10 -4t-4 -10t4 -10t10 -4q77 0 119 -41t42 -116q0 -26 -3 -53t-12.5 -64.5t-32.5 -70.5t-55 -54q-7 -4 -7 -12v0v-69q0 -12 13 -13q78 -8 149 -46q72 -38 72 -72q0 -5 4 -9t9 -4v0q6 0 10 3.5t4 9.5v0q0 44 -67 85t-151 56l-16 3v49l8 6
q33 24 55 60t31.5 74.5t13 66.5t3.5 54q0 85 -51 135t-138 50z" />
    <glyph glyph-name="pen" unicode="&#xe658;" 
d="M890 763l-138 105q-45 35 -101 27t-91 -53l-402 -528q-3 -3 -3 -7q-9 -8 -14 -23l-59 -366q-2 -10 2 -20.5t11 -15.5q10 -10 23 -10q10 0 17 3l349 145q7 4 20 17l3 3l403 531q37 45 31 101t-51 91zM174 -26l37 231l184 -138zM468 113l-228 175l317 415l228 -175z
M854 621l-33 -43l-228 175l33 43q15 19 37.5 22t41.5 -12l139 -106q17 -15 19.5 -38.5t-9.5 -40.5z" />
    <glyph glyph-name="circle" unicode="&#xe601;" 
d="M680 -47q37 -15 77 -15t77 15q35 15 62 41l4 3q28 29 44 66q15 37 15 77t-15 77q-16 37 -44 66l-4 3q-27 26 -62 41q-37 15 -77 15h-202v-202q0 -40 15 -77q16 -37 44 -66l4 -3q27 -26 62 -41zM697 -5q-22 9 -39 24h-1l-11 10q-22 22 -34 51t-12 60v157h157q31 0 60 -12
q21 -9 39 -24h1l11 -10q22 -22 34 -51t12 -60t-12 -60t-34 -51l-11 -10h-1q-18 -15 -39 -24q-29 -12 -60 -12t-60 12v0zM344 817q-37 15 -77 15t-77 -15t-66 -44l-3 -3q-27 -28 -41 -63q-15 -36 -15 -76.5t15 -77.5q14 -35 41 -62l3 -3q29 -29 66 -45q36 -15 77 -15h202v202
q0 41 -16 77q-14 35 -40 63l-4 3q-28 29 -65 44zM326.5 775q28.5 -12 50.5 -34l11 -11h-1q16 -18 24 -40q12 -29 12 -60v-156h-156v0q-32 0 -60.5 11.5t-50.5 34.5l-11 10l1 1q-15 18 -24 40q-12 28 -12 59t12 60q9 22 24 40h-1l11 11q22 22 51 34t60 12t59.5 -12zM697 775
q29 12 60 12t60 -12t51 -34v0q22 -22 34 -51t12 -60t-12 -59.5t-34 -50.5v0q-22 -23 -51 -34.5t-60 -11.5v0h-157v156q0 31 12 60t34 51v0q22 22 51 34zM680 817q-37 -15 -66 -44v0v0v0q-28 -29 -44 -66q-15 -37 -15 -77v-202h202q40 0 77 15q37 16 66 45v0v0v0q28 28 44 65
q15 37 15 77t-15 77q-16 37 -44 66v0v0v0q-29 29 -66 44t-77 15v0q-40 0 -77 -15zM326 -5q-28 -12 -59 -12v0q-31 0 -60 12t-51 34t-34 51t-12 60v0q0 31 12 59.5t34 51t51 34.5t60 12h156v-157q0 -31 -12 -60t-34 -51t-51 -34v0zM344 -46.5q37 15.5 65.5 44t44 65.5
t15.5 77v202h-202q-41 0 -78 -15.5t-65.5 -44t-43.5 -65.5t-15 -77t15 -77t43.5 -65.5t66 -44t77.5 -15.5t77 15.5z" />
    <glyph glyph-name="yunduan" unicode="&#xe628;" 
d="M512 -128q-139 0 -257 68.5t-186.5 186.5t-68.5 257t68.5 257t186.5 186.5t257 68.5t257 -68.5t186.5 -186.5t68.5 -257q0 -104 -40.5 -198.5t-109.5 -163.5t-163.5 -109.5t-198.5 -40.5zM512 865q-98 0 -187 -38t-153.5 -102.5t-102.5 -153.5t-38 -187t38 -187
t102.5 -153.5t153.5 -102.5t187 -38t187 38t153.5 102.5t102.5 153.5t38 187t-38 187t-102.5 153.5t-153.5 102.5t-187 38zM824 451q-20 20 -54 35.5t-62 17.5q-29 51 -91.5 88t-122.5 37q-82 0 -152.5 -57.5t-86.5 -138.5q-45 -13 -77 -55t-32 -89q0 -54 37.5 -97t90.5 -51
v-2h421q76 1 129 54t53 129q0 31 -15.5 69t-37.5 60zM695 179h-401q-45 0 -76.5 32.5t-31.5 77.5q0 38 26 69.5t64 38.5l14 3l2 14q10 73 69.5 124t133.5 51q44 0 93.5 -25.5t74.5 -62.5q-27 -5 -51 -17q-16 -8 -34.5 -24t-28.5 -30q-4 -5 -4 -11q0 -8 6 -14t14 -6
q10 0 16 8q19 27 49 42q31 16 65 16h4q59 0 101 -42t42 -101t-42 -101t-101 -42h-4v0z" />
    <glyph glyph-name="teach" unicode="&#xe667;" 
d="M862 733h-700q-19 0 -32.5 -14t-13.5 -33v-467q0 -19 13.5 -32.5t32.5 -13.5h193l-149 -149q-5 -5 -4 -14t8 -15.5t15.5 -7.5t13.5 4l182 182h182l182 -182q5 -5 13.5 -4t15.5 7.5t8 15.5t-4 14l-149 149h193q19 0 32.5 13.5t13.5 32.5v467q0 19 -13.5 33t-32.5 14z
M862 219h-700v467h700v-467zM448 570h314q8 0 13 6.5t5 16.5t-5 16.5t-13 6.5h-314q-7 0 -12.5 -6.5t-5.5 -16.5t5.5 -16.5t12.5 -6.5zM244 592q0 -19 13.5 -33t33 -14t33 14t13.5 33t-13.5 33t-33 14t-33 -14t-13.5 -33zM448 430h314q8 0 13 6.5t5 16.5t-5 16.5t-13 6.5
h-314q-7 0 -12.5 -6.5t-5.5 -16.5t5.5 -16.5t12.5 -6.5zM244 452q0 -19 13.5 -33t33 -14t33 14t13.5 33t-13.5 33t-33 14t-33 -14t-13.5 -33zM448 291h314q8 0 13 7t5 16.5t-5 16.5t-13 7h-314q-7 0 -12.5 -7t-5.5 -16.5t5.5 -16.5t12.5 -7zM244 313q0 -19 13.5 -33t33 -14
t33 14t13.5 33t-13.5 33t-33 14t-33 -14t-13.5 -33z" />
    <glyph glyph-name="bag" unicode="&#xe60e;" horiz-adv-x="1027" 
d="M855 669h-169v70q0 41 -33 70t-80 29h-112q-47 0 -80 -29t-33 -70v-70h-168q-47 0 -80 -33t-33 -80v-506q0 -47 33 -80t80 -33h675q46 0 79.5 33t33.5 80v506q0 47 -33 80t-80 33zM399 749q0 17 19.5 29.5t42.5 12.5h113q23 0 43 -12.5t20 -29.5v-80h-238v80zM918 50
q0 -24 -19.5 -43.5t-42.5 -19.5h-676q-23 0 -42.5 19.5t-19.5 43.5v343h287v-62q0 -24 17 -40.5t40 -16.5h112q24 0 40.5 17t16.5 40v62h288zM449 319v193h138v-194zM918 438h-288v62q0 23 -16.5 39.5t-39.5 16.5h-113q-23 0 -40 -16.5t-17 -39.5v-63h-287v119q0 23 19.5 43
t42.5 20h676q23 0 43 -20t20 -43v-118z" />
    <glyph glyph-name="atom" unicode="&#xe660;" 
d="M531 896q25 -9 45.5 -24.5t34 -30t27.5 -40t20.5 -41t18.5 -45.5l6 -12q9 1 29.5 3.5t36 4t29.5 1.5q53 -1 89 -11q100 -31 77 -140q-13 -59 -76 -137q-1 -1 -14 -18q51 -71 54 -76q41 -64 40 -120q-1 -62 -57 -91q-46 -24 -114 -20q-6 0 -95 8q-16 -41 -17 -44
q-31 -72 -71 -111q-39 -38 -82 -38t-82 39q-44 43 -79 132q0 1 -8 23q-87 -9 -94 -9q-49 0 -85 9q-54 13 -75.5 51.5t-7.5 92.5q16 59 70 128q1 1 21 25q-28 35 -30 37q-54 73 -64 133q-8 42 10 74t57 48q61 24 161 10q2 0 35 -6q6 14 7 15q5 10 15.5 33t19 39.5t17.5 31.5
q34 59 96 76h35zM707 405q-4 81 -6 94q-1 16 -13 23q-80 48 -162 94q-13 8 -26 1q-79 -44 -164 -95q-12 -7 -12 -21q-2 -95 0 -191q0 -14 12 -21q79 -48 165 -96q11 -6 23 0q92 52 163 95q13 7 14 24q2 12 6 93zM332 679q-103 16 -163 -11q-32 -15 -46 -42t-8 -62
q10 -64 71 -140q92 78 114 96q5 5 7 17q5 25 25 142zM659 698q-36 92 -84 132q-58 46 -115 6q-34 -23 -54.5 -56.5t-39.5 -81.5q110 -40 140 -51q6 -2 14 1q28 10 139 50zM692 679q21 -117 26 -144q2 -10 7 -15q22 -19 113 -95q62 74 72 137q11 74 -51 104q-36 18 -82 19.5
t-85 -6.5zM366 112q18 -45 37 -77t48 -55q55 -44 110 -8q35 22 56 55.5t42 84.5q-111 41 -142 52q-5 2 -13 -1q-29 -11 -138 -51zM186 386q-60 -74 -71 -137q-6 -34 7 -61.5t42 -42.5q37 -19 84 -20.5t85 6.5q-21 118 -26 145q-2 9 -10 16q-20 17 -111 94zM837 387
q-6 -6 -19 -18.5t-23.5 -22t-20.5 -15.5q-64 -42 -66 -113q-1 -13 -3.5 -27t-7.5 -32t-7 -28q100 -14 155 7q70 26 65 99q-2 40 -20.5 73.5t-52.5 76.5zM200 405q61 -57 101 -93v187q-22 -20 -101 -94zM669 677q-24 -7 -67 -21t-65 -21q30 -16 83.5 -48t78.5 -45
q-3 14 -9.5 43t-11 49t-9.5 43zM356 677q-4 -17 -14 -63t-16 -72q31 17 85.5 49t75.5 45q-50 16 -131 41zM699 268q-52 -30 -162 -93q75 -24 132 -41q20 89 30 134zM724 499v-188q16 16 49.5 47t51.5 47q-16 16 -101 94zM356 133q82 26 131 42q-34 20 -161 93q8 -35 30 -135
zM511 326q-33 0 -55.5 23.5t-22 56.5t23.5 56t56 23q33 -1 56.5 -25t22.5 -57t-25 -55.5t-56 -21.5z" />
    <glyph glyph-name="memory" unicode="&#xe707;" 
d="M640 512h-256v-256h256v256zM555 341h-86v86h86v-86zM896 427v85h-85v85q0 36 -25 61t-61 25h-85v85h-85v-85h-86v85h-85v-85h-85q-36 0 -61 -25t-25 -61v-85h-85v-85h85v-86h-85v-85h85v-85q0 -36 25 -61t61 -25h85v-85h85v85h86v-85h85v85h85q36 0 61 25t25 61v85h85
v85h-85v86h85zM725 171h-426v426h426v-426z" />
    <glyph glyph-name="play" unicode="&#xe644;" 
d="M189 629v-380q0 -19 13.5 -32.5t32.5 -13.5h552q19 0 32.5 13.5t13.5 32.5v380q0 19 -13.5 32.5t-32.5 13.5h-552q-19 0 -32.5 -13.5t-13.5 -32.5zM143 629q0 38 27 65t65 27h552q39 0 65.5 -27t26.5 -65v-380q0 -38 -27 -65t-65 -27h-552q-38 0 -65 27t-27 65v380v0z
M235 70h564q10 0 16.5 7t6.5 16.5t-6.5 16t-16.5 6.5h-564q-10 0 -16.5 -6.5t-6.5 -16t6.5 -16.5t16.5 -7zM480 366l96 58q16 10 16 24t-16 24l-96 58q-16 10 -27.5 3.5t-11.5 -25.5v-120q0 -20 11.5 -26.5t27.5 4.5zM504 326q-39 -24 -74 -4.5t-35 66.5v120q0 46 35 65.5
t74 -4.5l96 -58q38 -23 38 -63t-38 -64z" />
    <glyph glyph-name="project" unicode="&#xe606;" 
d="M896 0l-45 45q18 19 45 19v0q26 0 45 19t19 45v640q0 26 -19 45t-45 19h-640q-26 0 -45 -19t-19 -45v-5q0 -27 -19 -46l-45 46v5q0 53 37.5 90.5t90.5 37.5h640q53 0 90.5 -37.5t37.5 -90.5v-640q0 -53 -37.5 -90.5t-90.5 -37.5zM64 640v-640q0 -26 19 -45t45 -19h640
q26 0 45 19t19 45v640q0 26 -19 45t-45 19h-640q-26 0 -45 -19t-19 -45zM768 768q53 0 90.5 -37.5t37.5 -90.5v-640q0 -53 -37.5 -90.5t-90.5 -37.5h-640q-53 0 -90.5 37.5t-37.5 90.5v640q0 53 37.5 90.5t90.5 37.5h640zM160 640h384q13 0 22.5 -9.5t9.5 -22.5t-9.5 -22.5
t-22.5 -9.5h-384q-13 0 -22.5 9.5t-9.5 22.5t9.5 22.5t22.5 9.5zM736 576q-13 0 -22.5 9.5t-9.5 22.5t9.5 22.5t22.5 9.5t22.5 -9.5t9.5 -22.5t-9.5 -22.5t-22.5 -9.5zM64 512h768v-64h-768v64z" />
    <glyph glyph-name="course" unicode="&#xe60f;" 
d="M853 835h-414q-43 0 -76.5 -29.5t-39.5 -73.5q-68 -12 -112.5 -65t-44.5 -122q0 -79 55.5 -134.5t134 -55.5t134 55.5t55.5 134.5q0 68 -43 120q-39 48 -98 63q4 12 13.5 19.5t21.5 7.5h414q15 0 26 -11.5t11 -28.5v-549q0 -16 -11 -28t-26 -12h-185v64q0 68 -53 110
l123 249q8 15 2.5 30.5t-20 23t-30.5 2t-23 -19.5l-127 -255h-12h-72q-17 0 -28.5 -11.5t-11.5 -28t11.5 -28.5t28.5 -12h72q24 0 42 -17.5t18 -42.5v-117q0 -25 -18 -42.5t-42 -17.5h-72q-17 0 -28.5 -12t-11.5 -28.5t11.5 -28t28.5 -11.5h72q50 0 89 32t48 81h188
q48 0 82.5 35.5t34.5 84.5v549q0 50 -34.5 85t-82.5 35zM465 544.5q0 -45.5 -32 -77.5t-77.5 -32t-77.5 32t-32 77.5t32 78t77.5 32.5t77.5 -32.5t32 -78zM194 250h63q16 0 28 12t12 28.5t-12 28t-28 11.5h-63q-58 0 -99 -41t-41 -99v-117q0 -58 41 -99t99 -41h63
q16 0 28 11.5t12 28t-12 28.5t-28 12h-63q-25 0 -42.5 17.5t-17.5 42.5v117q0 25 17.5 42.5t42.5 17.5z" />
    <glyph glyph-name="left" unicode="&#xe604;" 
d="M232 384l48 -49h1l463 -463l48 49l-463 463l463 463l-48 49zM232 384z" />
    <glyph glyph-name="loop" unicode="&#xe603;" 
d="M930 448v-28q-1 -147 -92 -261q-71 -89 -179 -130q-5 -2 -8 -8q-37 -76 -119 -89q-46 -8 -90 12.5t-68 60.5q-27 43 -24 93t36 89q54 66 138 57q81 -8 123 -81l1 -2l2 -2q31 20 32 21q79 57 109 148q12 35 14 69q0 7 1.5 9t8.5 4q5 2 32.5 11t42.5 14q1 0 40 13zM290 64
q-41 30 -43 32q-58 47 -97 112q-34 57 -48 121q-17 80 -4 159q2 15 5 25q1 4 -2 8q-31 33 -39 77q-10 60 20.5 111t87.5 68q85 26 153 -33q45 -39 52 -101q5 -49 -19 -92.5t-67 -64.5q-31 -15 -62 -17h-5l-2 -1q-3 -23 -3 -24q-6 -87 33 -161q25 -49 66 -84q6 -5 4 -12
q-5 -20 -29 -120zM661 674q-26 16 -56 26q-59 20 -122 14q-32 -3 -64 -13q-5 -2 -8 2q-12 17 -66 96l-3 5q19 8 20 8q59 22 118 26q144 10 264 -70q6 -4 13 -2q51 18 101.5 1t80.5 -61q31 -45 27 -100t-41 -95q-34 -37 -83 -48t-95 9q-76 33 -94 115q-8 40 6 81z" />
    <glyph glyph-name="iconone" unicode="&#xe620;" 
d="M546 852l198 -186q14 -13 14 -32t-14 -31q-14 -13 -33.5 -13t-33.5 13l-131 122q-15 13 -34 13t-34 -13l-329 -308q-14 -13 -14 -32t14 -31l329 -310q15 -12 34 -12t34 12l131 123q14 14 33.5 14t33.5 -14q14 -12 14 -31t-14 -31l-198 -187q-15 -13 -34.5 -13t-33.5 13
l-464 436q-14 12 -14 31t14 32l464 435q14 13 33.5 13t34.5 -13zM811 539q15 14 34.5 14t33.5 -14l131 -122q14 -13 14 -32t-14 -31l-131 -123q-15 -13 -34 -13t-34 13q-14 12 -14 31t14 32l64 60q14 12 14 31t-14 32l-64 59q-14 13 -14 32t14 31zM512 244q55 3 94 44.5
t39 96.5q0 59 -41.5 100.5t-100.5 41.5t-100.5 -41.5t-41.5 -100.5v0q2 -59 45 -100.5t101 -41.5q3 0 5 1zM512 311q-29 2 -49 23.5t-20 50.5q0 30 21.5 52t52 22t52 -22t21.5 -52q-1 -31 -23 -52.5t-53 -21.5h-2z" />
    <glyph glyph-name="engineer2" unicode="&#xe614;" horiz-adv-x="1468" 
d="M1444 43q-2 -20 -17 -34t-35 -14h-2h-1313h-2q-20 0 -35 14t-17 34v805q2 20 17 34t35 14h2h1314h2q20 0 35 -14t17 -34v-805h-1zM1444 43q-2 -20 -17 -34t-35 -14h-2h-1313h-2q-20 0 -35 14t-17 34v805q2 20 17 34t35 14h2h1314h2q20 0 35 -14t17 -34v-805h-1zM93 105
q1 -20 16.5 -34.5t35.5 -14.5h2h1174h2q20 0 35.5 14.5t16.5 34.5v680q-1 20 -16.5 34t-35.5 14h-2h-1174h-2q-20 0 -35.5 -14t-16.5 -34v-680zM1429 -128h-1390h-3q-15 0 -25.5 10.5t-10.5 25.5t10.5 25t25.5 10h3h1390h1q15 0 26 -10.5t12 -24.5q-1 -15 -12.5 -25.5
t-25.5 -10.5h-1zM1294 581q-2 20 -17 33t-34 13t-34 -13t-17 -33q0 -13 8 -24l-158 -189h-5q-7 0 -14 -2l-303 195q5 9 5 20v0q-2 20 -17 33t-34 13t-34 -13t-17 -33q0 -16 10 -28l-154 -185h-3q-17 -2 -29 -15.5t-12 -30.5q0 -19 13.5 -33t32.5 -14t32.5 14t13.5 33v0
q0 11 -5 20l158 189l307 -197q-1 -6 -1 -12q2 -19 16.5 -32.5t34 -13.5t34.5 13.5t17 32.5q0 10 -4 18l163 196q18 0 32 13.5t15 31.5zM1183 587q-2 22 -19 37.5t-39 15.5t-39 -15.5t-19 -37.5q0 -15 9 -28l-178 -215h-6q-8 0 -15 -2l-343 223q6 10 6 22v0q-2 22 -19 37.5
t-39 15.5t-39 -15.5t-19 -37.5q1 -18 12 -32l-174 -211h-4q-19 -2 -33 -17.5t-14 -34.5q0 -22 15.5 -37.5t37 -15.5t37 15.5t15.5 37.5v0q0 12 -6 22l178 216l348 -225q-2 -6 -2 -13q2 -21 19 -36.5t39 -15.5t38.5 15.5t19.5 36.5q-1 11 -5 21l185 223q21 0 36.5 15.5
t16.5 35.5v0z" />
    <glyph glyph-name="engineer1" unicode="&#xe615;" 
d="M889 -128h-760q-54 0 -91.5 38t-37.5 92v0v764q0 54 37.5 92t91.5 38h766q53 0 91 -38t38 -92v-771q-6 -50 -45.5 -86t-89.5 -37v0zM889 831h-760h-1q-24 0 -43 -17t-21 -41v-71h896v71q-1 2 -1.5 6t-4 14t-10.5 18t-21.5 14t-33.5 6zM889 -128h-760q-54 0 -91.5 38
t-37.5 92v0v764q0 54 37.5 92t91.5 38h766q53 0 91 -38t38 -92v-771q-6 -50 -45.5 -86t-89.5 -37v0zM889 831h-760h-1q-24 0 -43 -17t-21 -41v-71h896v71q-1 2 -1.5 6t-4 14t-10.5 18t-21.5 14t-33.5 6zM953 643h-889v-641v-4q0 -25 18 -43t43 -18h4h766q25 2 44 21t20 44
v641h-6zM706 159q-7 -9 -19 -9t-19 9q-10 8 -10 20t10 19l141 117l-141 116q-10 8 -10 20t10 19q7 10 19 10t19 -10l161 -136q7 -8 7 -19t-7 -20zM350 159q-7 -9 -19.5 -9t-19.5 9l-161 136q-6 9 -6 20t6 19l161 136q7 10 19.5 10t19.5 -10q10 -7 10 -19t-10 -20l-142 -116
l142 -117q10 -7 10 -19t-10 -20zM490 163q-4 -8 -12.5 -10.5t-25.5 -2.5q-16 10 -16 27q0 7 3 12l74 276l7.5 5t15 7t16.5 1q15 -9 15 -27q0 -6 -2 -12z" />
    <glyph glyph-name="engineer4" unicode="&#xe616;" horiz-adv-x="1170" 
d="M1065 183h72v-136h-72v136zM35 183h72v-136h-72v136zM315 561l-115 235q8 12 8 27q0 17 -12 31q-14 16 -35 16q-11 0 -21 -5q-11 -5 -18.5 -17.5t-7.5 -24.5q0 -18 12.5 -32t31.5 -15l117 -239q-165 -104 -170 -325h-58v0q-20 0 -33.5 -13.5t-13.5 -33.5v-117
q0 -20 13.5 -33.5t33.5 -13.5h58v-58v-1q0 -29 20.5 -49.5t49.5 -20.5l819 2q30 0 50.5 20.5t20.5 49.5v0v58h58q20 0 33.5 14t13.5 33v0v118v2q0 19 -13 33q-14 14 -34 14v0h-60q-4 220 -171 324l115 239q18 1 31 15t13 32q0 19 -14 33t-33 14q-22 0 -36 -16
q-11 -14 -11 -31q0 -15 8 -27l-114 -236zM461 760l22 20l40 -62q9 -14 26 -14h2q8 0 15.5 6t9.5 13l21 79l21 -75v-2q3 -8 11.5 -13.5t16.5 -5.5q15 0 24 12l30 58l14 -13q8 -9 21 -9h57q10 0 17 7t7 16.5t-7 16.5t-17 7h-50l-23 24q-9 8 -21 8q-16 0 -25 -12l-21 -40
l-27 96q-3 8 -11 13.5t-16.5 5.5t-17 -5.5t-11.5 -13.5l-26 -102l-30 47q-7 12 -20 14h-4q-11 0 -19 -7l-32 -28h-60v0q-10 0 -16.5 -7t-6.5 -17v0q0 -9 6.5 -16t16.5 -7v0h66q10 0 17 6zM1065 183h72v-136h-72v136zM35 183h72v-136h-72v136zM1123 216h-60q-4 220 -171 324
l115 239q18 1 31 15t13 32q0 19 -14 33t-33 14q-22 0 -36 -16q-11 -14 -11 -31q0 -15 8 -27l-114 -236q-53 22 -131 37.5t-135 15.5q-58 0 -137.5 -16t-132.5 -39l-115 235q8 12 8 27q0 17 -12 31q-14 16 -35 16q-11 0 -21 -5q-11 -5 -18.5 -17.5t-7.5 -24.5q0 -18 12.5 -32
t31.5 -15l117 -239q-165 -104 -170 -325h-58v0q-20 0 -33.5 -13.5t-13.5 -33.5v-117q0 -20 13.5 -33.5t33.5 -13.5h58v-58v-1q0 -29 20.5 -49.5t49.5 -20.5l819 2q30 0 50.5 20.5t20.5 49.5v0v58h58q20 0 33.5 14t13.5 33v0v118v2q0 19 -13 33q-14 14 -34 14v0zM1017 -54v0
q0 -10 -6.5 -17t-16.5 -7l-819 -1q-10 0 -17 6.5t-7 16.5v0v259q0 68 17.5 124t45.5 93t67 65t77.5 43.5t83 25t77 12.5t65.5 3t65.5 -2.5t77 -12t83 -25t77.5 -43.5t67 -65t45.5 -92.5t17.5 -123.5v-259zM461 760l22 20l40 -62q9 -14 26 -14h2q8 0 15.5 6t9.5 13l21 79
l21 -75v-2q3 -8 11.5 -13.5t16.5 -5.5q15 0 24 12l30 58l14 -13q8 -9 21 -9h57q10 0 17 7t7 16.5t-7 16.5t-17 7h-50l-23 24q-9 8 -21 8q-16 0 -25 -12l-21 -40l-27 96q-3 8 -11 13.5t-16.5 5.5t-17 -5.5t-11.5 -13.5l-26 -102l-30 47q-7 12 -20 14h-4q-11 0 -19 -7l-32 -28
h-60v0q-10 0 -16.5 -7t-6.5 -17v0q0 -9 6.5 -16t16.5 -7v0h66q10 0 17 6zM751 363h-364h-2q-49 0 -83.5 -34.5t-34.5 -83.5q0 -19 9 -42t21 -37q14 -16 39 -27t47 -11v0h364h1q49 0 84 34.5t35 83.5q0 19 -9 42t-22 37q-14 16 -39 27t-46 11v0z" />
    <glyph glyph-name="engineer3" unicode="&#xe617;" 
d="M233 424q12 4 24 4q27 0 49 -17q14 -10 23 -26v-3h2q8 -18 8 -37v0q0 -14 -6.5 -30.5t-16.5 -26.5l-7 -7l37 -36l7 7q15 16 26.5 43.5t11.5 49.5q0 30 -13 56q18 13 30.5 37.5t13.5 45.5v0q0 22 -12.5 46t-29.5 37l-8 6l-30 -42l8 -6q8 -6 14 -18t6 -23q0 -10 -6.5 -22.5
t-15.5 -18.5q-15 15 -42 25.5t-49 10.5v0v0q-20 0 -38 -5l-10 -3l15 -50zM509 145l-3 1v602l-1 25q-8 56 -48 89.5t-100 33.5q-58 0 -103.5 -41t-51.5 -98q-65 -4 -110.5 -52t-45.5 -112q0 -35 14 -66q-25 -19 -42.5 -54t-17.5 -66q0 -40 26 -80t62 -56q-11 -16 -18.5 -42
t-7.5 -45q0 -48 31.5 -91.5t76.5 -58.5q4 -67 54.5 -114.5t117.5 -47.5q53 1 99 38.5t59 89.5h6v36q0 1 0.5 2.5t0.5 2.5v10h-1v90zM695 648h1q37 0 63 26t26 63t-26 63.5t-63 26.5q-30 0 -55.5 -20.5t-31.5 -48.5h-60v-52h63q9 -24 33.5 -41t49.5 -17zM658 738q0 15 11 26
t26.5 11t27 -11t11.5 -26.5t-11.5 -27t-26.5 -11.5h-1q-15 0 -26 11.5t-11 26.5v1zM935 396h-1q-37 0 -63 -26t-26 -63q0 -16 8.5 -35t19.5 -30l-32 -65h-292v-52h324l-6 5l6 -5l46 94q8 -2 16 -2q37 0 63 26.5t26 63.5t-26 63t-63 26zM973 307q0 -16 -11.5 -27t-27 -11
t-27 11t-11.5 27t11.5 27t26.5 11h1q15 0 26.5 -11t11.5 -27zM695 217h1q37 0 63.5 26.5t26.5 63.5t-26.5 63t-63.5 26q-27 0 -52 -18t-33 -44h-62v-52h61q8 -27 33 -46t52 -19zM658 307q0 16 11 27t26.5 11t27 -11t11.5 -27t-11.5 -27t-26.5 -11h-1q-15 0 -26 11t-11 27v0z
M791 77q-25 0 -49.5 -17t-33.5 -40h-159v-52h155q6 -29 32 -49.5t55 -20.5q37 0 63.5 26.5t26.5 63.5t-26.5 63t-63.5 26v0zM829 -12v0q0 -16 -11 -27t-27 -11t-27 11t-11 27t11 27t27 11t27 -11t11 -27zM679 429v-6l77 126h62q9 -25 33.5 -42.5t51.5 -17.5q37 0 63 26
t26 63t-26 63.5t-63 26.5q-29 0 -54 -20t-33 -47l-89 -1l10 -6l-10 6l-78 -125h-100v-52h130v6zM865 578q0 16 11 27t26.5 11t27 -11t11.5 -27t-11.5 -27t-26.5 -11v0q-16 0 -27 11t-11 27v0zM509 145l-3 1v602l-1 25q-8 56 -48 89.5t-100 33.5q-58 0 -103.5 -41t-51.5 -98
q-65 -4 -110.5 -52t-45.5 -112q0 -35 14 -66q-25 -19 -42.5 -54t-17.5 -66q0 -40 26 -80t62 -56q-11 -16 -18.5 -42t-7.5 -45q0 -48 31.5 -91.5t76.5 -58.5q4 -67 54.5 -114.5t117.5 -47.5q53 1 99 38.5t59 89.5h6v36q0 1 0.5 2.5t0.5 2.5v10h-1v90zM113 183v1
q0 36 25.5 66.5t61.5 36.5l10 2l-9 51l-10 -2q-34 -6 -63 -26h-3q-31 8 -52.5 36t-21.5 59q0 19 11 41.5t26 34.5v0l7 -8v0q19 -18 43 -30l9 -5l23 47l-9 4q-20 10 -34 26v0q-12 13 -20.5 35t-8.5 40q0 45 31 78t75 35q9 -38 34 -68l6 -7l40 33l-7 8q-10 12 -17.5 32
t-7.5 36q0 44 31 74.5t74 31.5q42 0 68 -23.5t30 -63.5v-124q-27 4 -49.5 24.5t-28.5 47.5l-2 9l-50 -10l2 -10q9 -43 46.5 -76t81.5 -36v-429q-25 -43 -61 -45l-10 -1l4 -51h9q32 2 58 21v-40q-4 -50 -36.5 -82.5t-76.5 -32.5q-50 1 -85.5 36t-35.5 85q0 48 33.5 83.5
t80.5 37.5l11 1l-3 51h-10q-52 -3 -98.5 -41t-59.5 -89q-25 12 -43.5 40t-18.5 56v0zM695 648h1q37 0 63 26t26 63t-26 63.5t-63 26.5q-30 0 -55.5 -20.5t-31.5 -48.5h-60v-52h63q9 -24 33.5 -41t49.5 -17zM658 738q0 15 11 26t26.5 11t27 -11t11.5 -26.5t-11.5 -27
t-26.5 -11.5h-1q-15 0 -26 11.5t-11 26.5v1zM935 396h-1q-37 0 -63 -26t-26 -63q0 -16 8.5 -35t19.5 -30l-32 -65h-292v-52h324l-6 5l6 -5l46 94q8 -2 16 -2q37 0 63 26.5t26 63.5t-26 63t-63 26zM973 307q0 -16 -11.5 -27t-27 -11t-27 11t-11.5 27t11.5 27t26.5 11h1
q15 0 26.5 -11t11.5 -27zM695 217h1q37 0 63.5 26.5t26.5 63.5t-26.5 63t-63.5 26q-27 0 -52 -18t-33 -44h-62v-52h61q8 -27 33 -46t52 -19zM658 307q0 16 11 27t26.5 11t27 -11t11.5 -27t-11.5 -27t-26.5 -11h-1q-15 0 -26 11t-11 27v0zM791 77q-25 0 -49.5 -17t-33.5 -40
h-159v-52h155q6 -29 32 -49.5t55 -20.5q37 0 63.5 26.5t26.5 63.5t-26.5 63t-63.5 26v0zM829 -12v0q0 -16 -11 -27t-27 -11t-27 11t-11 27t11 27t27 11t27 -11t11 -27zM679 429v-6l77 126h62q9 -25 33.5 -42.5t51.5 -17.5q37 0 63 26t26 63t-26 63.5t-63 26.5q-29 0 -54 -20
t-33 -47l-89 -1l10 -6l-10 6l-78 -125h-100v-52h130v6zM865 578q0 16 11 27t26.5 11t27 -11t11.5 -27t-11.5 -27t-26.5 -11v0q-16 0 -27 11t-11 27v0zM233 424q12 4 24 4q27 0 49 -17q14 -10 23 -26v-3h2q8 -18 8 -37v0q0 -14 -6.5 -30.5t-16.5 -26.5l-7 -7l37 -36l7 7
q15 16 26.5 43.5t11.5 49.5q0 30 -13 56q18 13 30.5 37.5t13.5 45.5v0q0 22 -12.5 46t-29.5 37l-8 6l-30 -42l8 -6q8 -6 14 -18t6 -23q0 -10 -6.5 -22.5t-15.5 -18.5q-15 15 -42 25.5t-49 10.5v0v0q-20 0 -38 -5l-10 -3l15 -50z" />
  </font>
</defs>
</svg>
